# xmcd CD database file
#
# Track frame offsets:
#	225
#	15745
#	32300
#	47756
#	67740
#	88867
#	101075
#	121962
#	138224
#	152917
#	169820
#	183275
#	197333
#	210076
#	226125
#	238713
#	253125
#	266033
#
# Disc length: 3722 seconds
#
# Revision: 0
# Processed by: cddbd v1.4PL0 Copyright (c) Steve Scherf et al.
# Submitted via: Feurio! 1.63 - http://www.feurio.com
#
DISCID=e60e8712
DTITLE=Various Artist - Truckin' and Singin'   CD 2/2
DYEAR=1900
DGENRE=country
TTITLE0=DAVE DUDLEY - Sunday in Deutschland
TTITLE1=ROGY and HOWARD - Bitte komm gut heim
TTITLE2=PETER HINNEN - El Rancho Grande (Auf meiner Ranch bin ich König)
TTITLE3=NANCY  WOOD - Lieder der Straße
TTITLE4=BERT KENTUCKY - Die schönsten Augen Hamburgs
TTITLE5=SAMMY'S SALOON featuring NANCY WOOD - Stark genug (We've Been Strong 
TTITLE5=Long Enough)
TTITLE6=GUNTER GABRIEL - Er ist ein Kerl-der 30-Tonner Diesel
TTITLE7=WESTERN UNION - Nach Süden
TTITLE8=TENNESSEE - Ich mach' mein Radio an
TTITLE9=LARRY and LIANE - ...eigentlich brauch' ich nur dich
TTITLE10=HOWDY DER ALPENROCKER - Tiroler Obstler
TTITLE11=GUDRUN LANGE and KACTUS - Ein Duft von Heu
TTITLE12=ANDRE LAMBERZ and HILL'S ANGELS - Autobahn
TTITLE13=SAMMY'S SALOON - Wir sind die Fahrer
TTITLE14=HEIDI GEHLERT - Dein Lachen steckt an
TTITLE15=LITTLE MA' CISSY - Einen Trucker legst du niemals an die Leine
TTITLE16=LONE STAR - Country Music
TTITLE17=BLACK BOTTOM SKIFFLE GROUP - Noch Amerika
EXTD=
EXTT0=
EXTT1=
EXTT2=
EXTT3=
EXTT4=
EXTT5=
EXTT6=
EXTT7=
EXTT8=
EXTT9=
EXTT10=
EXTT11=
EXTT12=
EXTT13=
EXTT14=
EXTT15=
EXTT16=
EXTT17=
PLAYORDER=
